<?xml version="1.0" standalone="no"?>
<!DOCTYPE svg PUBLIC "-//W3C//DTD SVG 20010904//EN"
 "http://www.w3.org/TR/2001/REC-SVG-20010904/DTD/svg10.dtd">
<svg version="1.0" xmlns="http://www.w3.org/2000/svg"
 width="1080.000000pt" height="1080.000000pt" viewBox="0 0 1080.000000 1080.000000"
 preserveAspectRatio="xMidYMid meet">

<g transform="translate(0.000000,1080.000000) scale(0.100000,-0.100000)"
fill="#000000" stroke="none">
<path d="M6215 10170 c-10 -11 -26 -22 -36 -25 -36 -12 -41 -41 -14 -73 16
-20 25 -42 25 -66 0 -30 -4 -37 -25 -42 -50 -12 -34 -43 89 -175 51 -54 93
-143 111 -235 3 -18 14 -39 25 -49 10 -9 21 -36 24 -60 4 -24 18 -60 31 -79
43 -63 69 -100 93 -130 43 -54 11 -130 -40 -96 -16 10 -58 15 -143 16 -110 2
-124 0 -164 -22 -55 -30 -76 -30 -113 1 -36 30 -54 31 -136 5 -46 -15 -77 -18
-120 -14 -48 5 -65 3 -103 -17 -58 -30 -154 -35 -386 -20 -131 8 -188 8 -211
0 -27 -9 -37 -8 -67 11 -19 12 -35 28 -35 35 0 29 43 26 107 -7 31 -16 35 -8
17 33 -9 19 -37 49 -65 68 -27 19 -64 47 -82 63 -18 16 -49 39 -71 51 -21 12
-48 28 -60 34 -11 7 -29 13 -38 13 -32 0 -107 39 -134 69 -23 26 -35 31 -71
31 -42 0 -132 40 -141 62 -12 28 -57 67 -82 73 -17 4 -35 16 -41 28 -25 48
-51 67 -94 67 -66 0 -121 32 -149 89 -26 51 -40 61 -85 61 -17 0 -37 10 -52
26 -28 31 -173 104 -206 104 -12 0 -57 12 -99 26 -56 20 -88 25 -122 21 -37
-4 -58 0 -99 20 -98 46 -181 13 -91 -37 58 -32 148 -109 148 -127 0 -17 37
-90 61 -122 11 -13 19 -31 19 -41 0 -27 66 -163 89 -184 11 -10 30 -44 42 -75
11 -31 26 -63 34 -71 7 -8 20 -31 28 -50 8 -19 31 -50 51 -68 34 -31 36 -35
37 -100 0 -60 4 -73 39 -127 22 -33 49 -78 61 -100 12 -22 41 -61 64 -86 24
-25 53 -65 65 -89 12 -24 31 -52 42 -64 11 -12 26 -33 34 -48 8 -16 26 -30 42
-33 46 -10 77 -32 80 -58 3 -21 -2 -26 -31 -31 -39 -7 -216 -81 -232 -97 -7
-7 -5 -13 5 -19 22 -14 64 -12 102 4 68 29 146 45 245 52 92 6 105 5 143 -15
36 -19 57 -21 191 -21 119 0 158 3 185 16 43 21 41 43 -5 66 -60 30 -65 71 -9
83 23 5 37 2 57 -14 14 -12 45 -30 68 -41 29 -13 44 -27 49 -45 9 -36 41 -55
94 -55 53 0 65 7 73 40 13 54 87 96 155 88 25 -3 27 -7 27 -48 l0 -45 104 -3
c113 -3 128 3 151 56 6 15 23 36 38 47 37 27 150 28 210 1 39 -18 44 -18 85
-2 70 27 87 19 87 -39 0 -27 13 -31 130 -40 47 -3 115 -11 151 -17 54 -9 75
-8 124 7 49 14 66 15 101 5 33 -9 69 -9 165 1 68 8 234 14 369 14 253 1 279 4
314 44 16 17 31 21 87 21 l67 0 27 -67 c15 -38 35 -89 45 -115 10 -26 27 -59
39 -74 12 -15 21 -31 21 -36 0 -5 11 -33 24 -62 29 -63 46 -147 46 -230 1 -34
7 -97 15 -141 18 -98 20 -246 3 -263 -9 -9 -19 -7 -43 8 -48 30 -61 15 -46
-54 7 -30 21 -66 32 -79 23 -30 25 -60 4 -77 -18 -15 -52 -5 -60 18 -19 59
-184 87 -420 73 -130 -8 -143 -8 -185 12 -36 16 -75 22 -200 27 -113 5 -178
13 -239 30 -82 23 -85 23 -133 5 -38 -14 -63 -16 -106 -10 -31 4 -94 8 -138 9
-63 1 -86 5 -101 19 -16 14 -39 17 -131 17 -61 0 -123 -5 -137 -10 -20 -8 -40
-6 -77 5 -34 10 -69 13 -105 9 -38 -5 -64 -2 -91 9 -21 9 -79 18 -137 21 -123
5 -317 49 -365 81 -22 15 -67 29 -122 38 -48 8 -100 23 -114 33 -68 48 -81 54
-126 54 -26 0 -59 5 -75 11 -15 6 -53 15 -83 21 -30 5 -73 21 -96 34 -50 29
-70 30 -109 4 -16 -11 -47 -20 -67 -20 -20 0 -48 -4 -62 -10 -39 -14 -57 -4
-45 27 12 32 4 43 -32 43 -35 0 -40 -27 -9 -55 37 -34 19 -95 -29 -95 -36 0
-47 14 -54 65 -14 100 -17 105 -52 105 -18 0 -53 9 -78 20 -54 24 -137 38
-137 22 0 -26 43 -56 124 -85 106 -38 118 -52 92 -102 -16 -28 -25 -35 -50
-35 -77 0 -125 -32 -166 -111 -10 -19 -30 -40 -44 -47 -30 -13 -59 -64 -54
-95 2 -17 10 -22 33 -22 22 0 29 -4 26 -15 -3 -8 -6 -35 -8 -60 -6 -75 -11
-87 -47 -108 -50 -30 -56 -85 -10 -102 18 -7 24 -17 24 -40 0 -23 6 -33 23
-39 34 -13 50 -37 43 -66 -5 -18 -13 -25 -30 -25 -14 0 -31 -2 -39 -6 -9 -3
-19 6 -27 26 -12 28 -17 31 -43 26 -44 -9 -55 -22 -73 -85 -8 -31 -22 -68 -29
-83 -8 -14 -15 -38 -15 -52 0 -15 -7 -43 -15 -63 -8 -19 -15 -51 -15 -69 0
-33 1 -34 40 -34 38 0 40 -2 40 -29 0 -39 -49 -77 -79 -61 -62 33 -105 -13
-113 -121 -4 -57 -2 -70 24 -119 20 -37 28 -66 26 -90 -3 -33 -5 -35 -35 -32
-35 3 -63 -25 -63 -66 0 -25 -17 -99 -57 -252 -14 -52 -29 -120 -33 -151 -4
-31 -19 -76 -34 -101 -20 -34 -26 -58 -26 -101 0 -37 -7 -70 -20 -95 -11 -21
-25 -65 -31 -98 -6 -32 -17 -85 -25 -117 -8 -32 -12 -62 -9 -68 10 -16 41 -10
60 11 21 24 55 26 55 5 0 -32 -40 -94 -62 -97 -16 -2 -30 -18 -46 -50 -22 -44
-22 -48 -8 -77 18 -33 21 -133 7 -193 -5 -23 -5 -54 1 -78 10 -38 8 -44 -32
-105 -23 -35 -46 -81 -50 -102 -8 -31 -5 -41 16 -66 13 -16 24 -38 24 -50 0
-12 7 -40 16 -64 21 -53 13 -75 -23 -71 -27 3 -28 5 -25 49 3 37 -1 51 -22 76
-14 17 -26 40 -26 52 0 13 -5 19 -14 15 -13 -5 -15 -91 -7 -232 1 -10 9 -12
30 -7 21 4 30 2 34 -9 4 -9 13 -16 20 -16 30 0 57 -131 54 -252 -2 -65 -3 -68
-44 -103 -40 -34 -43 -40 -43 -87 0 -34 7 -62 21 -84 17 -28 19 -43 14 -88 -4
-33 -3 -56 3 -60 6 -3 27 10 48 29 53 50 68 47 60 -12 -4 -27 -11 -72 -15
-101 -4 -30 -14 -58 -22 -63 -8 -5 -88 -7 -179 -5 -159 3 -261 18 -340 47 -74
28 -227 104 -265 133 -55 42 -153 144 -172 181 -9 16 -27 38 -40 49 -14 10
-29 24 -34 30 -4 6 -32 40 -62 77 -30 36 -59 81 -66 100 -6 18 -23 54 -37 79
-24 42 -38 75 -98 233 -13 34 -26 90 -29 124 -4 52 -2 65 14 82 11 12 31 21
44 21 37 0 44 26 38 137 -5 85 -3 106 11 128 24 37 66 164 66 201 0 17 -7 37
-15 44 -8 7 -15 27 -15 45 0 69 -84 122 -150 95 -20 -8 -69 -13 -130 -12 -114
2 -130 -6 -130 -69 0 -27 -6 -44 -21 -57 -11 -9 -29 -33 -39 -53 -10 -19 -25
-41 -33 -47 -11 -9 -14 -40 -14 -130 0 -100 -3 -123 -21 -157 -19 -35 -20 -46
-11 -79 6 -22 8 -64 4 -96 -6 -52 -4 -62 19 -97 35 -52 47 -160 23 -197 -24
-37 -12 -148 20 -187 30 -36 41 -72 49 -168 7 -81 32 -147 79 -204 66 -80 155
-201 155 -211 0 -21 161 -191 209 -221 27 -16 67 -43 90 -58 23 -15 53 -32 67
-37 14 -6 46 -24 70 -41 25 -17 74 -39 109 -49 35 -10 69 -21 75 -25 6 -4 46
-13 88 -21 42 -7 120 -24 172 -37 147 -37 192 -44 228 -33 22 6 50 5 87 -4 57
-14 71 -12 180 26 50 17 92 18 98 2 6 -20 -13 -56 -40 -73 -55 -37 -12 -58 68
-33 22 6 42 8 45 5 8 -8 -54 -165 -75 -190 -13 -15 -13 -24 -2 -60 28 -92 26
-114 -13 -157 -57 -64 -49 -84 39 -92 26 -3 30 -8 33 -35 3 -25 -3 -36 -27
-54 -25 -19 -31 -30 -31 -61 0 -38 -29 -110 -50 -123 -6 -4 -10 -58 -10 -132
0 -105 -3 -130 -17 -145 -12 -14 -19 -47 -24 -126 -7 -112 -1 -144 32 -175 10
-10 19 -28 19 -40 0 -12 13 -38 29 -57 16 -21 26 -41 22 -50 -22 -55 -114
-189 -158 -230 -29 -27 -55 -59 -58 -72 -3 -13 -5 -63 -3 -113 3 -86 4 -89 28
-95 43 -10 36 -38 -24 -95 -61 -58 -68 -75 -33 -75 31 0 47 -18 47 -51 0 -22
-6 -30 -35 -39 -39 -13 -43 -27 -24 -94 16 -57 58 -118 114 -165 28 -24 63
-54 79 -67 16 -14 33 -23 38 -22 6 2 11 25 13 52 2 32 11 59 26 80 19 25 24
43 24 93 0 60 1 63 28 69 15 3 35 17 45 31 57 83 107 119 169 122 7 1 34 22
60 47 27 25 61 52 76 60 17 10 36 33 48 62 11 26 26 50 34 54 7 4 16 25 20 45
3 21 13 48 21 61 19 29 61 105 88 159 12 23 62 82 111 131 151 149 239 251
267 309 37 76 80 128 120 142 54 21 111 52 138 77 14 12 48 35 75 51 36 21 53
38 59 60 7 23 20 35 46 46 29 11 38 22 48 54 7 22 18 46 26 52 7 6 92 51 189
100 97 48 183 96 192 105 9 9 20 16 25 16 4 0 40 26 79 58 47 38 87 62 119 70
26 7 76 26 112 41 185 80 158 74 369 79 168 3 199 1 232 -14 21 -9 49 -18 61
-19 13 -1 28 -3 35 -4 6 0 28 -17 49 -36 20 -19 46 -35 56 -35 11 0 32 -8 46
-19 15 -10 38 -22 52 -26 14 -4 41 -19 60 -32 19 -13 49 -33 67 -44 18 -11 42
-36 53 -54 12 -19 38 -47 58 -62 56 -43 176 -173 205 -223 15 -25 49 -66 76
-92 48 -46 50 -47 99 -41 44 5 51 3 66 -18 9 -13 16 -43 16 -66 0 -36 5 -46
35 -70 19 -15 40 -40 46 -56 7 -16 29 -37 53 -49 23 -12 68 -51 102 -87 34
-36 83 -81 110 -100 27 -18 63 -51 79 -72 66 -87 76 -97 105 -109 18 -7 39
-28 50 -49 10 -20 51 -70 91 -111 39 -41 82 -97 96 -125 14 -27 42 -69 62 -91
46 -54 76 -98 101 -154 33 -72 36 -75 66 -75 27 0 29 -3 31 -40 0 -22 6 -52
12 -68 18 -47 92 -137 112 -137 27 0 24 26 -6 56 -28 28 -34 81 -10 90 25 10
63 -5 70 -27 10 -32 113 -129 136 -129 17 0 19 4 12 23 -7 21 -7 38 -1 117 3
31 0 35 -27 40 -25 4 -31 10 -33 35 -1 17 -10 47 -19 67 -20 47 -11 83 27 103
16 8 34 24 40 36 16 28 2 129 -20 154 -10 11 -21 39 -25 61 -4 28 -17 52 -41
75 -44 42 -46 82 -6 101 23 12 27 19 24 48 -3 40 -18 60 -43 60 -27 0 -35 44
-16 91 15 37 15 43 -3 84 -10 24 -35 61 -55 83 -29 32 -38 53 -46 104 -11 70
-38 157 -63 203 -11 21 -14 43 -10 73 6 42 -10 102 -27 102 -5 0 -18 15 -29
33 -16 25 -20 49 -20 117 1 82 -18 178 -39 203 -5 7 -13 37 -17 67 -3 30 -13
70 -20 89 -8 18 -14 57 -14 86 0 60 -14 78 -57 73 -25 -3 -28 0 -31 29 -2 21
3 37 18 50 18 18 21 35 26 169 2 82 7 174 10 204 5 48 3 58 -15 74 -17 16 -21
31 -21 83 0 79 -13 107 -45 99 -19 -5 -24 -1 -29 27 -4 17 -9 43 -12 57 -3 14
-1 37 5 52 l10 27 41 -16 c22 -9 43 -13 47 -9 4 3 6 84 6 180 -1 145 -4 179
-19 207 -12 24 -19 65 -22 144 -2 61 -9 118 -14 127 -5 10 -11 57 -14 105 -3
56 -13 104 -25 133 -35 79 -61 233 -53 320 8 100 -1 120 -59 120 -23 0 -62 -5
-86 -11 -37 -8 -47 -7 -60 6 -14 14 -14 18 -1 43 14 24 23 28 80 32 78 6 89
25 40 70 -28 26 -30 32 -19 46 10 13 24 15 61 11 43 -5 58 -1 125 33 88 46
103 48 129 19 14 -16 26 -19 49 -14 16 3 68 11 115 18 47 7 99 21 117 30 39
21 97 22 152 2 29 -10 65 -12 128 -8 89 5 125 19 151 55 17 24 54 23 77 -2 16
-17 26 -20 64 -14 25 4 63 13 83 21 25 10 53 13 85 9 123 -17 171 -17 217 -2
26 9 77 16 113 16 46 0 72 5 83 15 10 9 43 20 74 25 31 5 61 12 66 15 18 11
11 34 -16 52 -24 15 -26 21 -20 64 6 44 4 49 -23 71 -16 12 -36 37 -44 54 -14
28 -21 31 -99 43 -46 7 -109 22 -140 32 -70 23 -144 17 -151 -12 -5 -18 -47
-28 -47 -11 1 13 27 42 39 42 19 0 13 48 -8 59 -15 8 -24 5 -45 -14 -32 -30
-81 -33 -124 -8 -26 15 -36 16 -64 5 -36 -13 -116 -16 -142 -6 -9 3 -16 12
-16 20 0 19 -17 18 -49 -5 -41 -29 -97 -40 -206 -39 -64 0 -123 -6 -165 -17
-36 -9 -96 -21 -135 -25 -123 -14 -189 -28 -245 -49 -63 -24 -197 -29 -233 -9
-12 7 -58 15 -102 18 l-80 5 -3 30 c-4 49 10 60 72 57 30 -1 57 2 61 8 3 5 19
10 34 10 20 0 31 -7 40 -26 16 -36 45 -28 49 13 3 26 -1 32 -20 35 -19 2 -23
9 -21 37 3 65 45 80 226 81 191 0 302 16 370 51 56 29 62 31 137 24 64 -6 82
-4 103 10 23 15 39 16 154 5 90 -8 142 -8 173 -1 25 6 70 11 101 11 43 0 60 5
74 20 21 24 23 22 -37 48 -56 24 -87 64 -68 87 16 19 54 19 83 1 30 -19 79
-28 96 -17 21 14 4 46 -41 77 -40 28 -45 29 -138 26 -78 -3 -109 1 -156 18
-44 15 -103 23 -229 30 -93 6 -199 16 -235 22 -38 7 -142 11 -249 10 -202 -2
-256 6 -266 41 -3 12 -11 39 -17 59 -8 28 -8 48 0 77 7 21 12 59 12 85 0 27 8
61 20 83 10 20 24 60 30 89 6 29 18 58 26 64 18 16 18 35 -3 70 -15 27 -15 30
2 56 20 32 35 121 40 239 1 44 6 95 10 113 6 28 5 32 -13 32 -30 0 -73 49 -70
79 2 17 11 27 31 32 33 9 117 83 133 116 7 15 7 49 1 101 -4 42 -6 93 -4 114
3 20 -1 62 -9 95 -7 32 -14 88 -14 124 0 40 -6 78 -16 98 -9 18 -20 71 -24
119 -9 102 -33 185 -65 227 -12 17 -25 40 -29 53 -4 12 -18 34 -30 50 -13 15
-26 38 -30 52 -4 14 -15 39 -24 57 -13 27 -14 41 -5 85 13 66 7 84 -43 117
-42 29 -53 53 -33 77 10 13 26 14 81 9 74 -8 87 0 74 48 -9 33 -225 217 -256
217 -5 0 -22 20 -39 43 -16 24 -45 59 -63 79 -127 133 -205 223 -215 247 -6
15 -52 68 -100 117 -76 76 -99 93 -162 118 -54 22 -80 39 -99 65 -37 50 -70
83 -122 118 -25 17 -58 45 -74 62 -16 17 -52 43 -80 57 -28 15 -68 41 -89 59
-21 18 -58 38 -83 45 -25 7 -64 28 -86 47 -45 38 -77 42 -103 13z m723 -1263
c3 -12 -3 -17 -22 -17 -25 0 -35 18 -19 34 12 12 38 2 41 -17z m-2473 -11 c15
-11 17 -19 9 -46 -5 -18 -19 -39 -30 -47 -32 -21 -58 8 -50 55 8 50 35 65 71
38z m2895 4 c0 -5 -7 -10 -15 -10 -8 0 -15 5 -15 10 0 6 7 10 15 10 8 0 15 -4
15 -10z m-2524 -151 c10 -17 -23 -46 -37 -32 -7 7 -9 19 -6 27 7 18 33 21 43
5z m-196 -1039 c29 -16 43 -46 31 -69 -12 -21 -115 -66 -130 -56 -23 13 -6
110 22 127 17 11 55 10 77 -2z m810 -169 c0 -12 -26 -21 -61 -21 -19 0 -29 5
-29 15 0 11 12 15 45 15 25 0 45 -4 45 -9z m660 -121 c14 -16 33 -29 42 -30
21 0 35 -20 14 -20 -8 0 -21 -7 -30 -15 -8 -8 -26 -19 -41 -25 -60 -23 -116
42 -81 94 23 36 65 35 96 -4z m-2086 -827 c-13 -21 -15 -39 -10 -90 8 -74 -4
-106 -37 -101 -12 2 -26 13 -32 26 -6 13 -23 26 -40 30 -61 16 -40 67 55 131
67 44 92 45 64 4z m2511 -56 c0 -26 -20 -25 -23 2 -3 16 1 22 10 19 7 -3 13
-12 13 -21z m63 -133 c3 -24 -24 -57 -42 -51 -16 5 -20 46 -5 63 17 20 43 13
47 -12z m-2778 -54 c0 -24 -11 -30 -38 -23 -26 6 -29 40 -4 45 26 6 42 -2 42
-22z m2405 -155 c0 -49 -25 -68 -54 -41 -27 24 -26 32 4 62 33 33 50 26 50
-21z m940 0 c0 -15 -8 -21 -29 -23 -33 -4 -51 10 -42 33 9 25 71 16 71 -10z
m-3377 -39 c3 -13 -1 -17 -14 -14 -11 2 -20 11 -22 22 -3 13 1 17 14 14 11 -2
20 -11 22 -22z m4622 -145 c27 -52 3 -76 -60 -63 -38 8 -52 40 -30 68 19 21
77 18 90 -5z m130 -21 c0 -21 -37 -37 -51 -23 -13 13 -1 41 19 46 24 5 32 -1
32 -23z m-4836 -90 c5 -46 3 -68 -8 -92 -9 -17 -16 -37 -16 -43 0 -18 -30 -27
-46 -14 -7 6 -16 31 -20 56 -5 36 -2 54 16 91 23 48 47 75 60 67 4 -3 10 -32
14 -65z m3421 40 c3 -6 4 -19 0 -30 -9 -27 -86 -38 -120 -16 -13 9 -33 16 -45
16 -35 0 -22 17 23 27 56 14 134 15 142 3z m-3325 -206 c0 -14 -12 -19 -23 -8
-9 9 4 35 14 28 5 -3 9 -12 9 -20z m3240 -84 c8 -15 6 -24 -10 -40 -16 -16
-25 -18 -40 -10 -23 12 -25 23 -10 51 14 25 46 24 60 -1z m1775 -115 c0 -17
-6 -20 -47 -19 -54 0 -61 4 -52 28 5 13 17 16 53 14 38 -3 46 -6 46 -23z
m-5468 -6 c15 -15 5 -47 -18 -60 -14 -7 -20 -6 -24 3 -5 16 -8 39 -6 56 1 15
33 16 48 1z m347 -41 c9 -12 16 -33 16 -45 0 -20 -5 -23 -44 -23 -53 0 -64 18
-39 61 21 35 46 37 67 7z m4896 -40 c0 -30 -33 -83 -62 -102 -17 -11 -40 -13
-91 -9 -57 5 -71 10 -84 29 -8 13 -12 31 -9 40 6 17 33 16 93 -2 16 -4 30 3
58 30 43 44 95 51 95 14z m-3560 -8 c22 -11 40 -27 40 -35 0 -8 -21 -29 -47
-47 -39 -26 -60 -33 -110 -36 -61 -4 -63 -3 -63 19 1 29 23 57 75 92 48 32 54
33 105 7z m3396 -175 c8 -20 -13 -45 -38 -45 -24 0 -34 26 -18 45 16 19 49 19
56 0z m-3888 -32 c4 -37 -22 -56 -66 -51 -23 3 -27 7 -25 31 3 41 21 59 57 55
27 -3 31 -7 34 -35z m4029 21 c5 -14 -11 -34 -27 -34 -3 0 -11 4 -19 9 -19 12
-6 41 19 41 11 0 23 -7 27 -16z m-3237 -125 c0 -5 -7 -9 -15 -9 -15 0 -20 12
-9 23 8 8 24 -1 24 -14z m-905 -35 c35 -38 32 -61 -7 -69 -18 -4 -48 -16 -67
-26 -42 -25 -61 -18 -61 19 0 30 19 57 60 85 33 23 47 21 75 -9z m-979 -101
c-10 -10 -19 5 -10 18 6 11 8 11 12 0 2 -7 1 -15 -2 -18z m2060 -294 c7 -112
8 -112 -26 -142 -50 -45 -65 -34 -65 45 0 58 3 70 26 95 15 15 32 39 39 51 16
33 21 24 26 -49z m270 46 c9 -22 -4 -99 -20 -120 -9 -13 -20 -16 -39 -11 -37
9 -42 41 -17 99 17 38 26 47 46 47 13 0 27 -7 30 -15z m-1872 -171 c3 -9 6
-26 6 -39 0 -58 -27 -71 -67 -33 -25 23 -30 57 -11 76 17 17 65 15 72 -4z
m-184 -49 c0 -8 -4 -15 -10 -15 -5 0 -10 7 -10 15 0 8 5 15 10 15 6 0 10 -7
10 -15z m-280 -65 c7 -50 39 -52 86 -6 54 52 66 48 62 -21 -3 -58 -3 -58 -39
-63 -19 -4 -45 -16 -57 -28 -36 -36 -74 -23 -92 32 -6 19 -18 40 -26 46 -20
17 -18 36 7 61 29 29 53 21 59 -21z m420 -56 c6 -15 19 -38 29 -53 27 -39 33
-65 18 -85 -22 -30 -51 -11 -82 54 -24 51 -27 63 -17 85 15 33 40 32 52 -1z
m3814 -333 c52 -55 10 -90 -68 -57 -30 12 -36 20 -36 44 0 36 6 42 45 42 21 0
40 -9 59 -29z m31 -382 c30 -36 32 -92 4 -97 -31 -6 -75 98 -52 121 12 12 21
8 48 -24z m19 -259 c19 -7 26 -17 26 -35 0 -35 -24 -79 -54 -98 -21 -14 -26
-14 -36 -2 -17 20 -3 122 19 135 20 12 15 12 45 0z m43 -193 c8 -5 3 -16 -15
-35 -15 -15 -35 -42 -44 -60 -31 -58 -92 -33 -72 31 15 50 40 73 81 72 21 0
43 -4 50 -8z m101 -69 c17 -17 15 -55 -4 -62 -22 -9 -22 -9 -29 24 -10 44 7
64 33 38z m-1435 -522 c21 -16 22 -55 2 -62 -27 -11 -75 16 -75 41 0 12 3 25
7 28 11 11 47 7 66 -7z m-2065 -649 c6 -7 12 -26 14 -42 3 -27 0 -30 -28 -33
-33 -3 -64 18 -64 43 0 35 56 59 78 32z m-412 -82 c7 -18 -13 -45 -33 -45 -17
0 -27 24 -19 45 7 20 45 19 52 0z m338 -58 c10 -7 17 -22 15 -32 -5 -24 -65
-41 -85 -24 -14 12 -19 51 -7 62 11 12 58 8 77 -6z m3776 -91 c0 -2 3 -11 6
-20 4 -10 1 -16 -9 -16 -17 0 -40 24 -30 33 7 8 33 10 33 3z m-3900 -71 c0 -8
-7 -15 -15 -15 -8 0 -15 7 -15 15 0 8 7 15 15 15 8 0 15 -7 15 -15z m3690
-166 c0 -5 -4 -9 -10 -9 -5 0 -10 7 -10 16 0 8 5 12 10 9 6 -3 10 -10 10 -16z
m-4570 -370 c0 -16 -53 -79 -67 -79 -30 0 -24 25 13 57 41 34 54 40 54 22z
m128 -89 c2 -13 -5 -39 -16 -59 -30 -55 -35 -89 -17 -114 18 -26 20 -87 3
-108 -22 -26 -68 -50 -91 -47 -20 3 -22 8 -21 62 1 55 4 62 35 87 31 25 32 29
21 53 -23 51 -15 91 24 125 40 36 57 36 62 1z m4818 -341 c21 -17 13 -53 -12
-57 -21 -3 -74 47 -74 70 0 14 66 3 86 -13z"/>
<path d="M3159 8651 c-29 -25 -18 -36 49 -46 50 -7 65 2 60 36 -2 20 -10 24
-44 27 -29 2 -47 -3 -65 -17z"/>
<path d="M3338 8633 c-10 -2 -18 -8 -18 -13 0 -18 77 -64 150 -90 97 -34 175
-73 219 -109 28 -23 33 -32 27 -54 -3 -15 -12 -27 -19 -27 -6 0 -22 -15 -34
-34 -18 -28 -29 -34 -70 -40 -27 -3 -65 -15 -84 -25 -20 -11 -54 -24 -77 -30
-42 -12 -92 -59 -92 -88 0 -23 84 -9 130 21 45 29 88 39 163 38 71 -2 93 -13
102 -51 8 -36 -20 -108 -45 -116 -10 -3 -31 -31 -47 -63 -26 -50 -34 -58 -69
-67 -22 -5 -59 -26 -83 -47 -23 -20 -55 -39 -69 -43 -91 -22 -86 -65 7 -65 52
0 59 3 79 29 15 20 39 34 77 45 42 13 58 23 70 46 9 17 20 30 26 30 5 0 18 20
29 45 11 25 25 45 32 45 7 1 28 14 47 30 32 27 33 29 17 51 -21 30 -20 70 1
107 23 41 6 100 -37 124 -59 34 -47 74 26 85 43 6 67 20 58 34 -3 5 -31 23
-62 39 -31 17 -93 52 -136 79 -43 27 -104 57 -135 67 -31 9 -73 25 -93 35 -37
19 -56 21 -90 12z"/>
<path d="M3315 8230 c-3 -5 1 -10 9 -10 9 0 16 5 16 10 0 6 -4 10 -9 10 -6 0
-13 -4 -16 -10z"/>
<path d="M3290 8100 c0 -5 5 -10 10 -10 6 0 10 5 10 10 0 6 -4 10 -10 10 -5 0
-10 -4 -10 -10z"/>
<path d="M4120 8010 c0 -5 5 -10 10 -10 6 0 10 5 10 10 0 6 -4 10 -10 10 -5 0
-10 -4 -10 -10z"/>
<path d="M3011 7805 c-63 -68 -80 -100 -62 -118 9 -9 22 -6 54 9 23 12 54 26
70 32 25 11 27 16 27 71 0 83 -15 84 -89 6z"/>
</g>
</svg>
